<mxfile host="app.diagrams.net" modified="2024-03-14T14:16:16.342Z" agent="Mozilla/5.0 (Windows NT 10.0; Win64; x64) AppleWebKit/537.36 (KHTML, like Gecko) Chrome/122.0.0.0 Safari/537.36" version="24.0.6" etag="UAerM8VeFKyaCcgwXF7Q" type="github">
  <diagram name="PÃ¡gina-1" id="Hh8ZvN_-H3D2XuDumo02">
    <mxGraphModel>
      <root>
        <mxCell id="0" />
        <mxCell id="1" parent="0" />
      </root>
    </mxGraphModel>
  </diagram>
</mxfile>
